<?xml version="1.0" encoding="UTF-8"?>
<svg xmlns="http://www.w3.org/2000/svg" width="245" height="187" viewBox="0 0 245 187" fill="none">
  <path d="M42.6772 124.338C42.7342 124.285 42.8014 124.244 42.8746 124.218C42.9479 124.191 43.0257 124.18 43.1035 124.184H49.2114C49.2894 124.177 49.368 124.187 49.4417 124.214C49.5154 124.24 49.5823 124.283 49.6377 124.338C49.6931 124.394 49.7356 124.461 49.7621 124.535C49.7886 124.609 49.7986 124.688 49.7912 124.766V150.753C49.7986 150.831 49.7886 150.91 49.7621 150.984C49.7356 151.058 49.6931 151.125 49.6377 151.18C49.5823 151.236 49.5154 151.278 49.4417 151.305C49.368 151.332 49.2894 151.342 49.2114 151.334H43.3729C43.235 151.338 43.0988 151.303 42.9787 151.235C42.8586 151.167 42.7591 151.068 42.6908 150.948L34.7856 137.753C34.7345 137.677 34.6833 137.643 34.6322 137.657C34.581 137.67 34.5537 137.729 34.5537 137.831L34.6322 150.743C34.6357 150.821 34.6236 150.899 34.5967 150.972C34.5697 151.046 34.5285 151.113 34.4753 151.17C34.4187 151.223 34.3521 151.264 34.2794 151.29C34.2068 151.317 34.1296 151.328 34.0524 151.324H27.9444C27.8665 151.331 27.7878 151.321 27.7141 151.295C27.6405 151.268 27.5735 151.226 27.5181 151.17C27.4628 151.115 27.4203 151.047 27.3938 150.974C27.3672 150.9 27.3573 150.821 27.3647 150.743V124.756C27.3573 124.677 27.3672 124.598 27.3938 124.525C27.4203 124.451 27.4628 124.384 27.5181 124.328C27.5735 124.273 27.6405 124.23 27.7141 124.203C27.7878 124.177 27.8665 124.167 27.9444 124.174H33.783C33.9209 124.171 34.0573 124.205 34.1775 124.273C34.2976 124.341 34.397 124.44 34.465 124.561L42.3089 137.742C42.36 137.821 42.4112 137.855 42.4623 137.841C42.5135 137.828 42.5408 137.77 42.5408 137.667L42.5033 124.756C42.5032 124.678 42.5185 124.601 42.5484 124.529C42.5782 124.458 42.622 124.393 42.6772 124.338Z" fill="#352E60"></path>
  <path d="M63.4804 131.304C63.5374 131.25 63.6045 131.209 63.6778 131.183C63.7511 131.156 63.8289 131.145 63.9067 131.15H70.0146C70.0923 131.145 70.1702 131.156 70.2435 131.183C70.3167 131.209 70.3839 131.25 70.4409 131.304C70.4941 131.361 70.5353 131.428 70.5623 131.501C70.5892 131.575 70.6013 131.653 70.5978 131.731V150.729C70.6013 150.807 70.5892 150.885 70.5623 150.959C70.5353 151.032 70.4941 151.099 70.4409 151.156C70.3839 151.21 70.3167 151.251 70.2435 151.277C70.1702 151.304 70.0923 151.315 70.0146 151.31H63.9067C63.8287 151.318 63.75 151.308 63.6764 151.281C63.6027 151.255 63.5357 151.212 63.4804 151.156C63.425 151.101 63.3825 151.034 63.356 150.96C63.3294 150.886 63.3195 150.807 63.3269 150.729V149.45C63.3305 149.419 63.325 149.388 63.311 149.36C63.2971 149.332 63.2754 149.309 63.2485 149.293C63.1973 149.269 63.1461 149.293 63.095 149.372C62.0378 150.871 60.3872 151.621 58.1432 151.621C56.1856 151.621 54.6259 150.981 53.4641 149.7C52.3024 148.419 51.7226 146.642 51.7249 144.369V131.717C51.7181 131.639 51.7285 131.561 51.7552 131.487C51.7819 131.413 51.8244 131.347 51.8797 131.291C51.9349 131.236 52.0016 131.193 52.075 131.166C52.1484 131.14 52.2268 131.129 52.3046 131.136H58.416C58.494 131.129 58.5726 131.139 58.6463 131.165C58.72 131.192 58.7869 131.234 58.8423 131.29C58.8977 131.345 58.9401 131.413 58.9667 131.486C58.9932 131.56 59.0031 131.639 58.9957 131.717V142.793C58.9624 143.472 59.1756 144.14 59.596 144.673C59.7842 144.906 60.0234 145.091 60.2949 145.216C60.5664 145.34 60.8629 145.4 61.1613 145.391C61.682 145.409 62.1888 145.221 62.5732 144.868C62.9613 144.489 63.2121 143.991 63.286 143.453C63.3175 143.379 63.3315 143.3 63.3269 143.22V131.745C63.3209 131.665 63.3314 131.584 63.3578 131.508C63.3842 131.432 63.4259 131.363 63.4804 131.304Z" fill="#352E60"></path>
  <path d="M84.9792 124.338C85.0363 124.285 85.1034 124.244 85.1767 124.218C85.25 124.191 85.3278 124.18 85.4055 124.184H91.5169C91.5941 124.18 91.6713 124.192 91.7439 124.218C91.8166 124.245 91.8832 124.286 91.9398 124.338C91.993 124.396 92.0342 124.463 92.0612 124.536C92.0881 124.61 92.1002 124.688 92.0967 124.766V150.753C92.1002 150.831 92.0881 150.909 92.0612 150.982C92.0342 151.056 91.993 151.123 91.9398 151.18C91.8832 151.233 91.8166 151.274 91.7439 151.3C91.6713 151.327 91.5941 151.338 91.5169 151.334H85.4055C85.3276 151.342 85.2489 151.332 85.1752 151.305C85.1016 151.278 85.0346 151.236 84.9792 151.18C84.9239 151.125 84.8814 151.058 84.8549 150.984C84.8283 150.91 84.8184 150.831 84.8258 150.753V149.59C84.8294 149.559 84.8239 149.528 84.8099 149.5C84.796 149.472 84.7742 149.449 84.7473 149.433C84.6962 149.409 84.645 149.433 84.5939 149.512C83.639 150.934 82.1441 151.645 80.1093 151.645C78.4115 151.656 76.7632 151.073 75.4473 149.997C74.0338 148.844 73.0135 147.279 72.528 145.518C72.1257 144.106 71.9304 142.643 71.9483 141.175C71.9182 139.482 72.2075 137.799 72.8009 136.214C73.3868 134.681 74.3914 133.344 75.6997 132.357C77.0621 131.346 78.722 130.82 80.4162 130.862C82.2987 130.862 83.6913 131.457 84.5939 132.647C84.6116 132.67 84.6353 132.688 84.6624 132.698C84.6895 132.708 84.7189 132.711 84.7473 132.706C84.7985 132.706 84.8258 132.647 84.8258 132.569V124.766C84.8216 124.688 84.8331 124.61 84.8594 124.536C84.8858 124.463 84.9265 124.396 84.9792 124.338ZM84.8258 141.281C84.8702 140.25 84.6581 139.224 84.2085 138.296C84.0189 137.927 83.7297 137.619 83.374 137.407C83.0183 137.195 82.6102 137.087 82.1964 137.096C81.7671 137.081 81.3431 137.194 80.9786 137.422C80.6141 137.65 80.3257 137.982 80.1502 138.375C79.7253 139.282 79.5263 140.28 79.5704 141.281C79.531 142.258 79.73 143.23 80.1502 144.113C80.3392 144.497 80.6326 144.82 80.9967 145.045C81.3608 145.27 81.7807 145.387 82.2082 145.383C82.6357 145.379 83.0534 145.254 83.4133 145.023C83.7732 144.791 84.0606 144.463 84.2426 144.075C84.6558 143.203 84.8558 142.246 84.8258 141.281Z" fill="#352E60"></path>
  <path d="M106.325 131.304C106.382 131.25 106.449 131.209 106.522 131.183C106.595 131.156 106.673 131.145 106.751 131.15H112.859C112.937 131.142 113.016 131.152 113.089 131.179C113.163 131.205 113.23 131.248 113.285 131.304C113.341 131.359 113.383 131.426 113.41 131.5C113.436 131.574 113.446 131.653 113.439 131.731V148.674C113.439 152.369 112.376 154.999 110.25 156.562C108.124 158.126 105.449 158.908 102.225 158.908C100.865 158.918 99.5068 158.803 98.1671 158.566C98.0144 158.542 97.8768 158.461 97.7827 158.338C97.6887 158.215 97.6456 158.06 97.6624 157.906L97.8943 152.675C97.8943 152.234 98.1262 152.08 98.5763 152.21C99.5771 152.482 100.609 152.625 101.646 152.634C102.722 152.681 103.789 152.412 104.715 151.861C105.114 151.598 105.449 151.249 105.696 150.84C105.943 150.43 106.096 149.971 106.144 149.495C106.171 149.392 106.144 149.327 106.086 149.3C106.028 149.272 105.953 149.3 105.875 149.378C104.997 150.206 103.734 150.62 102.086 150.62C97.9591 150.62 95.3297 148.94 94.1974 145.579C93.7319 144.113 93.5095 142.58 93.5392 141.042C93.4961 139.377 93.7716 137.72 94.3509 136.159C94.9148 134.603 95.9318 133.252 97.2702 132.282C98.6044 131.321 100.212 130.818 101.854 130.845C103.629 130.845 104.993 131.388 105.946 132.473C105.963 132.497 105.987 132.515 106.014 132.525C106.041 132.535 106.071 132.537 106.1 132.531C106.151 132.531 106.178 132.473 106.178 132.398V131.738C106.172 131.659 106.182 131.58 106.207 131.506C106.232 131.431 106.272 131.362 106.325 131.304ZM106.171 140.997C106.202 140.137 106.056 139.28 105.745 138.477C105.566 138.046 105.258 137.68 104.864 137.43C104.469 137.181 104.008 137.059 103.542 137.082C102.632 137.082 101.95 137.538 101.496 138.45C101.059 139.273 100.845 140.196 100.875 141.127C100.84 141.996 101.013 142.86 101.38 143.647C101.574 144.074 101.892 144.432 102.291 144.675C102.69 144.919 103.153 145.037 103.62 145.015C104.073 145.046 104.524 144.936 104.912 144.699C105.299 144.463 105.605 144.112 105.786 143.695C106.075 142.831 106.205 141.922 106.171 141.011V140.997Z" fill="#352E60"></path>
  <path d="M134.631 141.562C134.635 141.885 134.621 142.208 134.59 142.529C134.59 142.892 134.399 143.073 134.01 143.073H122.415C122.394 143.07 122.372 143.071 122.352 143.078C122.331 143.084 122.313 143.095 122.298 143.11C122.282 143.125 122.271 143.144 122.264 143.164C122.257 143.184 122.255 143.206 122.258 143.227C122.281 143.522 122.389 143.805 122.568 144.041C122.898 144.542 123.374 144.928 123.932 145.145C124.633 145.452 125.391 145.605 126.156 145.593C126.813 145.6 127.467 145.495 128.09 145.282C128.65 145.095 129.163 144.791 129.597 144.389C129.704 144.295 129.84 144.241 129.982 144.236C130.067 144.234 130.152 144.254 130.226 144.295C130.301 144.336 130.364 144.395 130.409 144.468L133.348 148.229C133.447 148.35 133.501 148.501 133.502 148.657C133.502 148.732 133.485 148.806 133.451 148.874C133.417 148.941 133.368 148.999 133.307 149.043C132.356 149.952 131.204 150.623 129.945 151.003C128.542 151.437 127.082 151.653 125.614 151.642C123.215 151.642 121.169 151.137 119.475 150.127C117.795 149.147 116.49 147.633 115.765 145.826C115.19 144.451 114.9 142.974 114.912 141.483C114.883 140.007 115.114 138.536 115.594 137.14C116.219 135.273 117.425 133.656 119.035 132.528C120.699 131.396 122.673 130.813 124.683 130.859C126.283 130.848 127.86 131.248 129.263 132.022C130.663 132.792 131.857 133.89 132.745 135.222C133.667 136.601 134.269 138.171 134.504 139.814C134.585 140.393 134.627 140.977 134.631 141.562ZM122.449 138.652L122.295 139.079C122.28 139.108 122.276 139.141 122.283 139.173C122.29 139.205 122.307 139.233 122.333 139.254C122.377 139.29 122.433 139.31 122.49 139.312H126.896C126.917 139.315 126.938 139.313 126.958 139.306C126.978 139.299 126.996 139.288 127.011 139.273C127.026 139.258 127.037 139.24 127.043 139.22C127.05 139.2 127.052 139.179 127.049 139.158C127.035 138.984 126.996 138.814 126.933 138.652C126.822 138.185 126.54 137.777 126.142 137.51C125.699 137.225 125.178 137.083 124.652 137.103C124.167 137.083 123.689 137.222 123.291 137.501C122.893 137.78 122.597 138.182 122.449 138.645V138.652Z" fill="#352E60"></path>
  <path d="M136.176 151.17C136.123 151.113 136.082 151.045 136.056 150.972C136.029 150.899 136.018 150.821 136.022 150.743V124.756C136.015 124.677 136.025 124.598 136.051 124.525C136.078 124.451 136.12 124.384 136.176 124.328C136.231 124.273 136.298 124.23 136.372 124.203C136.445 124.177 136.524 124.167 136.602 124.174H142.71C142.788 124.167 142.866 124.177 142.94 124.203C143.014 124.23 143.081 124.273 143.136 124.328C143.191 124.384 143.234 124.451 143.26 124.525C143.287 124.598 143.297 124.677 143.29 124.756V144.878C143.286 144.905 143.289 144.931 143.297 144.957C143.306 144.982 143.32 145.004 143.339 145.023C143.358 145.041 143.381 145.055 143.406 145.064C143.431 145.072 143.458 145.074 143.484 145.07H155.42C155.498 145.066 155.575 145.078 155.648 145.105C155.72 145.132 155.787 145.174 155.843 145.227C155.897 145.283 155.939 145.35 155.966 145.423C155.993 145.496 156.004 145.574 156 145.651V150.732C156.007 150.81 155.996 150.889 155.97 150.963C155.943 151.036 155.9 151.103 155.845 151.158C155.79 151.214 155.723 151.256 155.65 151.283C155.576 151.31 155.498 151.321 155.42 151.314H136.602C136.525 151.32 136.447 151.31 136.374 151.285C136.301 151.261 136.233 151.221 136.176 151.17Z" fill="#352E60"></path>
  <path d="M171.558 131.745C172.904 132.251 174.101 133.091 175.037 134.186C175.851 135.122 176.305 136.319 176.315 137.561V150.743C176.319 150.821 176.307 150.899 176.28 150.972C176.253 151.046 176.212 151.113 176.159 151.17C176.102 151.223 176.035 151.264 175.963 151.29C175.89 151.317 175.813 151.328 175.736 151.324H169.624C169.546 151.331 169.468 151.321 169.394 151.295C169.32 151.268 169.253 151.226 169.198 151.17C169.143 151.115 169.1 151.047 169.074 150.974C169.047 150.9 169.037 150.821 169.045 150.743V149.375C169.045 149.272 169.024 149.214 168.987 149.201C168.949 149.187 168.901 149.221 168.85 149.296C168.449 150.065 167.812 150.684 167.032 151.061C166.07 151.474 165.027 151.667 163.98 151.625C161.866 151.625 160.203 151.139 158.991 150.168C157.779 149.197 157.173 147.783 157.173 145.925C157.173 143.962 157.863 142.45 159.243 141.387C160.623 140.325 162.627 139.795 165.256 139.797H168.85C168.876 139.801 168.903 139.799 168.928 139.791C168.953 139.783 168.976 139.769 168.995 139.75C169.014 139.732 169.028 139.709 169.037 139.684C169.045 139.659 169.048 139.632 169.045 139.606V138.922C169.052 138.671 169.002 138.421 168.898 138.192C168.794 137.963 168.639 137.761 168.444 137.602C167.987 137.248 167.418 137.07 166.841 137.099C166.417 137.09 165.996 137.169 165.603 137.332C165.286 137.45 165.015 137.667 164.829 137.951C164.758 138.092 164.66 138.218 164.539 138.32C164.429 138.388 164.297 138.409 164.171 138.378L157.947 137.602C157.586 137.551 157.405 137.397 157.405 137.137C157.516 135.955 158.004 134.839 158.796 133.957C159.702 132.947 160.837 132.169 162.104 131.69C163.577 131.116 165.146 130.833 166.726 130.856C168.378 130.836 170.02 131.138 171.558 131.745ZM168.25 145.935C168.511 145.719 168.718 145.446 168.856 145.136C168.994 144.826 169.058 144.489 169.045 144.15V143.647C169.049 143.621 169.046 143.594 169.038 143.568C169.03 143.543 169.016 143.52 168.997 143.501C168.978 143.482 168.955 143.467 168.929 143.459C168.904 143.451 168.877 143.449 168.85 143.453H166.916C165.293 143.453 164.481 143.983 164.481 145.043C164.472 145.251 164.507 145.459 164.584 145.652C164.66 145.846 164.776 146.022 164.925 146.168C165.285 146.474 165.75 146.627 166.221 146.595C166.954 146.625 167.674 146.391 168.25 145.935Z" fill="#352E60"></path>
  <path d="M198.353 141.165C198.373 142.633 198.177 144.096 197.773 145.508C197.29 147.27 196.27 148.836 194.854 149.987C193.539 151.062 191.892 151.645 190.196 151.635C188.149 151.635 186.654 150.924 185.711 149.501C185.656 149.423 185.605 149.399 185.554 149.423C185.528 149.439 185.507 149.462 185.493 149.49C185.48 149.518 185.475 149.549 185.479 149.58V150.743C185.483 150.821 185.471 150.899 185.444 150.972C185.417 151.046 185.375 151.113 185.322 151.17C185.266 151.223 185.199 151.264 185.126 151.29C185.054 151.317 184.976 151.328 184.899 151.324H178.788C178.71 151.331 178.631 151.321 178.558 151.295C178.484 151.268 178.417 151.226 178.362 151.17C178.306 151.115 178.264 151.047 178.237 150.974C178.211 150.9 178.201 150.821 178.208 150.743V124.756C178.201 124.677 178.211 124.598 178.237 124.525C178.264 124.451 178.306 124.384 178.362 124.328C178.417 124.273 178.484 124.23 178.558 124.203C178.631 124.177 178.71 124.167 178.788 124.174H184.899C184.976 124.17 185.054 124.182 185.126 124.208C185.199 124.235 185.266 124.275 185.322 124.328C185.375 124.385 185.417 124.453 185.444 124.526C185.471 124.599 185.483 124.677 185.479 124.756V132.548C185.479 132.627 185.503 132.671 185.554 132.685C185.583 132.69 185.613 132.687 185.64 132.677C185.668 132.667 185.692 132.65 185.711 132.627C186.62 131.437 188.012 130.842 189.885 130.842C191.581 130.799 193.242 131.325 194.605 132.336C195.913 133.324 196.918 134.66 197.504 136.193C198.096 137.782 198.384 139.469 198.353 141.165ZM190.738 141.281C190.782 140.28 190.583 139.282 190.158 138.375C189.982 137.982 189.694 137.651 189.329 137.423C188.965 137.195 188.541 137.081 188.112 137.096C187.698 137.087 187.29 137.194 186.934 137.406C186.578 137.619 186.289 137.927 186.1 138.296C185.649 139.224 185.436 140.25 185.482 141.281C185.444 142.246 185.643 143.206 186.062 144.075C186.244 144.463 186.532 144.791 186.892 145.023C187.251 145.254 187.669 145.379 188.097 145.383C188.524 145.387 188.944 145.27 189.308 145.045C189.672 144.82 189.966 144.497 190.155 144.113C190.57 143.229 190.77 142.258 190.738 141.281Z" fill="#352E60"></path>
  <path d="M201.815 149.929C200.128 148.789 199.283 147.277 199.281 145.391V145.049C199.277 144.971 199.289 144.893 199.316 144.82C199.343 144.746 199.384 144.679 199.438 144.622C199.495 144.569 199.562 144.528 199.635 144.501C199.708 144.475 199.786 144.464 199.864 144.468H205.662C206.05 144.468 206.245 144.612 206.245 144.896C206.253 145.111 206.321 145.32 206.441 145.498C206.562 145.676 206.73 145.817 206.927 145.904C207.47 146.183 208.077 146.316 208.687 146.291C209.154 146.31 209.621 146.223 210.051 146.038C210.211 145.985 210.349 145.88 210.444 145.74C210.538 145.6 210.584 145.432 210.573 145.264C210.562 145.095 210.495 144.935 210.383 144.808C210.272 144.681 210.121 144.595 209.955 144.564C209.233 144.353 208.496 144.192 207.752 144.082C206.77 143.952 205.893 143.797 205.123 143.617C204.345 143.434 203.592 143.159 202.879 142.8C200.662 141.717 199.554 140.007 199.554 137.67C199.522 136.704 199.728 135.744 200.152 134.875C200.577 134.007 201.207 133.256 201.989 132.688C203.612 131.462 205.751 130.848 208.407 130.845C210.03 130.812 211.643 131.111 213.147 131.724C214.408 132.232 215.5 133.085 216.298 134.186C217.053 135.263 217.446 136.553 217.42 137.869C217.42 138.156 217.229 138.296 216.841 138.296H211.231C210.845 138.296 210.651 138.156 210.651 137.869C210.655 137.661 210.603 137.457 210.501 137.276C210.399 137.096 210.251 136.946 210.071 136.843C209.6 136.575 209.063 136.447 208.523 136.474C208.024 136.455 207.527 136.555 207.073 136.764C206.913 136.828 206.775 136.938 206.675 137.079C206.576 137.221 206.52 137.388 206.514 137.561C206.514 137.975 206.76 138.245 207.247 138.412C208.021 138.627 208.81 138.783 209.607 138.877C209.737 138.905 210.231 138.983 211.094 139.11C211.944 139.237 212.78 139.445 213.591 139.732C214.817 140.118 215.918 140.827 216.779 141.784C217.546 142.742 217.938 143.949 217.881 145.176C217.881 147.296 217.057 148.905 215.408 150.004C213.76 151.103 211.528 151.647 208.714 151.635C205.804 151.635 203.504 151.066 201.815 149.929Z" fill="#352E60"></path>
  <path d="M86.6231 44.2876L62.2936 68.695C60.0789 70.9495 58.8428 73.9903 58.8546 77.1547C58.8665 80.3191 60.1253 83.3506 62.3567 85.5884C64.5882 87.8262 67.6114 89.0889 70.7674 89.1014C73.9235 89.1139 76.9565 87.8751 79.2055 85.6551L103.552 61.2442L86.6231 44.2876Z" fill="#45C9F3"></path>
  <path d="M86.6231 44.2876L62.2936 68.695C60.0789 70.9495 58.8428 73.9903 58.8546 77.1547C58.8665 80.3191 60.1253 83.3506 62.3567 85.5884C64.5882 87.8262 67.6114 89.0889 70.7674 89.1014C73.9235 89.1139 76.9565 87.8751 79.2055 85.6551L103.552 61.2442L86.6231 44.2876Z" fill="url(#paint0_linear_0_42)"></path>
  <path d="M201.337 30.6512C199.094 28.4028 196.052 27.1397 192.88 27.1397C189.708 27.1397 186.665 28.4028 184.422 30.6512L141.451 73.7523L158.367 90.7089L201.354 47.6249C202.466 46.5098 203.347 45.1859 203.947 43.729C204.548 42.2722 204.856 40.7109 204.855 39.1345C204.853 37.5581 204.542 35.9974 203.938 34.5418C203.335 33.0862 202.451 31.7641 201.337 30.6512Z" fill="#75F2B6"></path>
  <path d="M201.337 30.6512C199.094 28.4028 196.052 27.1397 192.88 27.1397C189.708 27.1397 186.665 28.4028 184.422 30.6512L141.451 73.7523L158.367 90.7089L201.354 47.6249C202.466 46.5098 203.347 45.1859 203.947 43.729C204.548 42.2722 204.856 40.7109 204.855 39.1345C204.853 37.5581 204.542 35.9974 203.938 34.5418C203.335 33.0862 202.451 31.7641 201.337 30.6512Z" fill="url(#paint1_linear_0_42)"></path>
  <path d="M145.649 73.0377L116.948 44.2603C112.957 40.2598 107.554 37.9978 101.911 37.9645C96.2672 37.9312 90.8382 40.1294 86.8004 44.0825L86.6196 44.2637L68.9847 61.9487C70.9763 59.9518 73.3407 58.3678 75.9428 57.2871C78.545 56.2064 81.334 55.6501 84.1505 55.6501C86.9671 55.6501 89.7561 56.2064 92.3582 57.2871C94.9604 58.3678 97.3248 59.9518 99.3164 61.9487L128.015 90.726C130.006 92.7229 132.371 94.3069 134.973 95.3876C137.575 96.4683 140.364 97.0245 143.18 97.0245C145.997 97.0245 148.786 96.4683 151.388 95.3876C153.99 94.3069 156.355 92.7229 158.346 90.726L175.974 73.0377C171.952 77.0684 166.499 79.3327 160.812 79.3327C155.125 79.3327 149.671 77.0684 145.649 73.0377Z" fill="#515CEA"></path>
  <defs>
    <linearGradient id="paint0_linear_0_42" x1="95.094" y1="52.765" x2="62.204" y2="85.5683" gradientUnits="userSpaceOnUse">
      <stop stop-opacity="0.2"></stop>
      <stop offset="0.49" stop-opacity="0"></stop>
    </linearGradient>
    <linearGradient id="paint1_linear_0_42" x1="149.89" y1="82.2314" x2="201.47" y2="30.7874" gradientUnits="userSpaceOnUse">
      <stop stop-opacity="0.2"></stop>
      <stop offset="0.33" stop-opacity="0"></stop>
    </linearGradient>
  </defs>
</svg>
